<svg width="40" height="40" viewBox="0 0 40 40" fill="none" xmlns="http://www.w3.org/2000/svg">
<path d="M20.0003 19.9998C18.167 19.9998 16.5975 19.3471 15.292 18.0415C13.9864 16.7359 13.3337 15.1665 13.3337 13.3332C13.3337 11.4998 13.9864 9.93039 15.292 8.62484C16.5975 7.31928 18.167 6.6665 20.0003 6.6665C21.8337 6.6665 23.4031 7.31928 24.7087 8.62484C26.0142 9.93039 26.667 11.4998 26.667 13.3332C26.667 15.1665 26.0142 16.7359 24.7087 18.0415C23.4031 19.3471 21.8337 19.9998 20.0003 19.9998ZM6.66699 33.3332V28.6665C6.66699 27.7221 6.91033 26.8537 7.39699 26.0615C7.88366 25.2693 8.52921 24.6654 9.33366 24.2498C11.0559 23.3887 12.8059 22.7426 14.5837 22.3115C16.3614 21.8804 18.167 21.6654 20.0003 21.6665C21.8337 21.6665 23.6392 21.8821 25.417 22.3132C27.1948 22.7443 28.9448 23.3898 30.667 24.2498C31.4725 24.6665 32.1187 25.2709 32.6053 26.0632C33.092 26.8554 33.3348 27.7232 33.3337 28.6665V33.3332H6.66699Z" fill="black"/>
</svg>
